<mxfile host="app.diagrams.net" modified="2023-07-09T17:40:02.732Z" agent="Mozilla/5.0 (Windows NT 10.0; Win64; x64) AppleWebKit/537.36 (KHTML, like Gecko) Chrome/114.0.0.0 Safari/537.36 Edg/114.0.1823.58" etag="UeL1qsVVjvBlVCLFy7Ph" version="21.6.1" type="github">
  <diagram name="Page-1" id="bBgiitlyDcpdIgE6tAXf">
    <mxGraphModel dx="746" dy="454" grid="1" gridSize="10" guides="1" tooltips="1" connect="1" arrows="1" fold="1" page="1" pageScale="1" pageWidth="850" pageHeight="1100" math="0" shadow="1">
      <root>
        <mxCell id="0" />
        <mxCell id="1" parent="0" />
        <mxCell id="7RVt2NxjOgcvbm3KxZOH-14" value="" style="edgeStyle=orthogonalEdgeStyle;rounded=0;orthogonalLoop=1;jettySize=auto;html=1;" edge="1" parent="1" source="7RVt2NxjOgcvbm3KxZOH-10" target="7RVt2NxjOgcvbm3KxZOH-13">
          <mxGeometry relative="1" as="geometry" />
        </mxCell>
        <mxCell id="7RVt2NxjOgcvbm3KxZOH-10" value="" style="rounded=1;whiteSpace=wrap;html=1;fillColor=#ffe6cc;strokeColor=#d79b00;" vertex="1" parent="1">
          <mxGeometry x="135" y="360" width="210" height="100" as="geometry" />
        </mxCell>
        <mxCell id="7RVt2NxjOgcvbm3KxZOH-3" value="" style="edgeStyle=orthogonalEdgeStyle;rounded=0;orthogonalLoop=1;jettySize=auto;html=1;" edge="1" parent="1" source="7RVt2NxjOgcvbm3KxZOH-1" target="7RVt2NxjOgcvbm3KxZOH-2">
          <mxGeometry relative="1" as="geometry" />
        </mxCell>
        <mxCell id="7RVt2NxjOgcvbm3KxZOH-1" value="Action happened,&lt;br&gt;Webhook triggered" style="ellipse;whiteSpace=wrap;html=1;fillColor=#d5e8d4;strokeColor=#82b366;" vertex="1" parent="1">
          <mxGeometry x="180" y="20" width="120" height="80" as="geometry" />
        </mxCell>
        <mxCell id="7RVt2NxjOgcvbm3KxZOH-5" style="edgeStyle=orthogonalEdgeStyle;rounded=0;orthogonalLoop=1;jettySize=auto;html=1;exitX=0.5;exitY=1;exitDx=0;exitDy=0;entryX=0.5;entryY=0;entryDx=0;entryDy=0;" edge="1" parent="1" source="7RVt2NxjOgcvbm3KxZOH-2" target="7RVt2NxjOgcvbm3KxZOH-4">
          <mxGeometry relative="1" as="geometry" />
        </mxCell>
        <mxCell id="7RVt2NxjOgcvbm3KxZOH-2" value="Delay" style="rounded=0;whiteSpace=wrap;html=1;fillColor=#fff2cc;strokeColor=#d6b656;" vertex="1" parent="1">
          <mxGeometry x="190" y="130" width="100" height="30" as="geometry" />
        </mxCell>
        <mxCell id="7RVt2NxjOgcvbm3KxZOH-7" value="" style="edgeStyle=orthogonalEdgeStyle;rounded=0;orthogonalLoop=1;jettySize=auto;html=1;" edge="1" parent="1" source="7RVt2NxjOgcvbm3KxZOH-4" target="7RVt2NxjOgcvbm3KxZOH-6">
          <mxGeometry relative="1" as="geometry" />
        </mxCell>
        <mxCell id="7RVt2NxjOgcvbm3KxZOH-4" value="Initialize Labelname variable" style="rounded=0;whiteSpace=wrap;html=1;fillColor=#d5e8d4;strokeColor=#82b366;" vertex="1" parent="1">
          <mxGeometry x="180" y="190" width="120" height="60" as="geometry" />
        </mxCell>
        <mxCell id="7RVt2NxjOgcvbm3KxZOH-11" style="edgeStyle=orthogonalEdgeStyle;rounded=0;orthogonalLoop=1;jettySize=auto;html=1;exitX=0.5;exitY=1;exitDx=0;exitDy=0;" edge="1" parent="1" source="7RVt2NxjOgcvbm3KxZOH-6" target="7RVt2NxjOgcvbm3KxZOH-10">
          <mxGeometry relative="1" as="geometry" />
        </mxCell>
        <mxCell id="7RVt2NxjOgcvbm3KxZOH-6" value="Parse Labels Json" style="rounded=0;whiteSpace=wrap;html=1;fillColor=#e1d5e7;strokeColor=#9673a6;" vertex="1" parent="1">
          <mxGeometry x="180" y="280" width="120" height="60" as="geometry" />
        </mxCell>
        <mxCell id="7RVt2NxjOgcvbm3KxZOH-8" value="Access labels json&lt;br&gt;Append label names to &#39;LabelName&#39;" style="rounded=0;whiteSpace=wrap;html=1;fillColor=#fff2cc;strokeColor=#d6b656;" vertex="1" parent="1">
          <mxGeometry x="180" y="380" width="120" height="60" as="geometry" />
        </mxCell>
        <mxCell id="7RVt2NxjOgcvbm3KxZOH-12" value="for each" style="text;html=1;strokeColor=none;fillColor=none;align=center;verticalAlign=middle;whiteSpace=wrap;rounded=0;" vertex="1" parent="1">
          <mxGeometry x="130" y="360" width="60" height="30" as="geometry" />
        </mxCell>
        <mxCell id="7RVt2NxjOgcvbm3KxZOH-18" value="" style="edgeStyle=orthogonalEdgeStyle;rounded=0;orthogonalLoop=1;jettySize=auto;html=1;" edge="1" parent="1" source="7RVt2NxjOgcvbm3KxZOH-13" target="7RVt2NxjOgcvbm3KxZOH-17">
          <mxGeometry relative="1" as="geometry" />
        </mxCell>
        <mxCell id="7RVt2NxjOgcvbm3KxZOH-21" value="True" style="edgeLabel;html=1;align=center;verticalAlign=middle;resizable=0;points=[];" vertex="1" connectable="0" parent="7RVt2NxjOgcvbm3KxZOH-18">
          <mxGeometry x="-0.1733" y="-1" relative="1" as="geometry">
            <mxPoint as="offset" />
          </mxGeometry>
        </mxCell>
        <mxCell id="7RVt2NxjOgcvbm3KxZOH-24" style="edgeStyle=orthogonalEdgeStyle;rounded=0;orthogonalLoop=1;jettySize=auto;html=1;exitX=1;exitY=0.5;exitDx=0;exitDy=0;entryX=1;entryY=0.5;entryDx=0;entryDy=0;" edge="1" parent="1" source="7RVt2NxjOgcvbm3KxZOH-13" target="7RVt2NxjOgcvbm3KxZOH-22">
          <mxGeometry relative="1" as="geometry">
            <mxPoint x="420" y="900" as="targetPoint" />
            <Array as="points">
              <mxPoint x="421" y="540" />
              <mxPoint x="421" y="910" />
            </Array>
          </mxGeometry>
        </mxCell>
        <mxCell id="7RVt2NxjOgcvbm3KxZOH-26" value="False" style="edgeLabel;html=1;align=center;verticalAlign=middle;resizable=0;points=[];" vertex="1" connectable="0" parent="7RVt2NxjOgcvbm3KxZOH-24">
          <mxGeometry x="-0.8627" y="-4" relative="1" as="geometry">
            <mxPoint as="offset" />
          </mxGeometry>
        </mxCell>
        <mxCell id="7RVt2NxjOgcvbm3KxZOH-13" value="Check if labelname contains &#39;Outlook&#39;" style="rhombus;whiteSpace=wrap;html=1;fillColor=#dae8fc;strokeColor=#6c8ebf;" vertex="1" parent="1">
          <mxGeometry x="165" y="490" width="145" height="100" as="geometry" />
        </mxCell>
        <mxCell id="7RVt2NxjOgcvbm3KxZOH-20" value="" style="edgeStyle=orthogonalEdgeStyle;rounded=0;orthogonalLoop=1;jettySize=auto;html=1;" edge="1" parent="1" source="7RVt2NxjOgcvbm3KxZOH-17" target="7RVt2NxjOgcvbm3KxZOH-19">
          <mxGeometry relative="1" as="geometry" />
        </mxCell>
        <mxCell id="7RVt2NxjOgcvbm3KxZOH-17" value="Get ADO issue URL from &#39;issueids&#39; tabel" style="shape=parallelogram;perimeter=parallelogramPerimeter;whiteSpace=wrap;html=1;fixedSize=1;fillColor=#fff2cc;strokeColor=#d6b656;" vertex="1" parent="1">
          <mxGeometry x="147.5" y="640" width="185" height="70" as="geometry" />
        </mxCell>
        <mxCell id="7RVt2NxjOgcvbm3KxZOH-23" value="" style="edgeStyle=orthogonalEdgeStyle;rounded=0;orthogonalLoop=1;jettySize=auto;html=1;" edge="1" parent="1" source="7RVt2NxjOgcvbm3KxZOH-19" target="7RVt2NxjOgcvbm3KxZOH-22">
          <mxGeometry relative="1" as="geometry" />
        </mxCell>
        <mxCell id="7RVt2NxjOgcvbm3KxZOH-19" value="Insert current Issue data in &#39;dataUpdates&#39; table" style="shape=parallelogram;perimeter=parallelogramPerimeter;whiteSpace=wrap;html=1;fixedSize=1;fillColor=#d5e8d4;strokeColor=#82b366;" vertex="1" parent="1">
          <mxGeometry x="145" y="750" width="190" height="70" as="geometry" />
        </mxCell>
        <mxCell id="7RVt2NxjOgcvbm3KxZOH-22" value="End" style="ellipse;whiteSpace=wrap;html=1;fillColor=#f8cecc;strokeColor=#b85450;" vertex="1" parent="1">
          <mxGeometry x="180" y="870" width="120" height="80" as="geometry" />
        </mxCell>
      </root>
    </mxGraphModel>
  </diagram>
</mxfile>
